0
SECTION
2
HEADER
9
$INSUNITS
70
4
9
$ACADVER
1
AC1014
9
$HANDSEED
5
FFFF
0
ENDSEC
0
SECTION
2
TABLES
0
TABLE
2
VPORT
5
8
100
AcDbSymbolTable
0
ENDTAB
0
TABLE
2
LTYPE
5
5
100
AcDbSymbolTable
0
LTYPE
5
14
100
AcDbSymbolTableRecord
100
AcDbLinetypeTableRecord
2
BYBLOCK
70
0
0
LTYPE
5
15
100
AcDbSymbolTableRecord
100
AcDbLinetypeTableRecord
2
BYLAYER
70
0
0
ENDTAB
0
TABLE
2
LAYER
5
2
100
AcDbSymbolTable
70
2
0
LAYER
5
50
100
AcDbSymbolTableRecord
100
AcDbLayerTableRecord
2
0
70
0
6
CONTINUOUS
0
ENDTAB
0
TABLE
2
STYLE
5
3
100
AcDbSymbolTable
70
1
0
STYLE
5
11
100
AcDbSymbolTableRecord
100
AcDbTextStyleTableRecord
2
STANDARD
70
0
0
ENDTAB
0
TABLE
2
VIEW
5
6
100
AcDbSymbolTable
70
0
0
ENDTAB
0
TABLE
2
UCS
5
7
100
AcDbSymbolTable
70
0
0
ENDTAB
0
TABLE
2
APPID
5
9
100
AcDbSymbolTable
70
2
0
APPID
5
12
100
AcDbSymbolTableRecord
100
AcDbRegAppTableRecord
2
ACAD
70
0
0
ENDTAB
0
TABLE
2
DIMSTYLE
5
A
100
AcDbSymbolTable
70
1
0
ENDTAB
0
TABLE
2
BLOCK_RECORD
5
1
100
AcDbSymbolTable
70
1
0
BLOCK_RECORD
5
1F
100
AcDbSymbolTableRecord
100
AcDbBlockTableRecord
2
*MODEL_SPACE
0
BLOCK_RECORD
5
1B
100
AcDbSymbolTableRecord
100
AcDbBlockTableRecord
2
*PAPER_SPACE
0
ENDTAB
0
ENDSEC
0
SECTION
2
BLOCKS
0
BLOCK
5
20
100
AcDbEntity
100
AcDbBlockBegin
2
*MODEL_SPACE
0
ENDBLK
5
21
100
AcDbEntity
100
AcDbBlockEnd
0
BLOCK
5
1C
100
AcDbEntity
100
AcDbBlockBegin
2
*PAPER_SPACE
0
ENDBLK
5
1D
100
AcDbEntity
100
AcDbBlockEnd
0
ENDSEC
0
SECTION
2
ENTITIES
0
LWPOLYLINE
5
100
100
AcDbEntity
8
0
100
AcDbPolyline
90
8
70
1
43
0.0
10
-1350.4500000000005
20
140.45000000000016
10
-1350.4500000000005
20
109.55000000000041
10
-1345.4500000000005
20
109.55000000000041
10
-1345.4500000000003
20
104.55000000000041
10
-1314.5500000000004
20
104.55000000000041
10
-1314.5500000000004
20
110.00000000000028
10
-1344.5500000000004
20
110.00000000000028
10
-1344.5500000000006
20
140.45000000000016
0
CIRCLE
5
101
100
AcDbEntity
8
0
100
AcDbCircle
10
-1051.7101990031204
20
117.91404769224556
30
0
40
6.0000000000000426
210
-1.0947644252537633e-47
220
2.5561324206646671e-63
230
1
0
CIRCLE
5
102
100
AcDbEntity
8
0
100
AcDbCircle
10
-938.28998654054772
20
117.91404769224471
30
0
40
6.0000000000000888
210
-1.0947644252537633e-47
220
2.5561324206646676e-63
230
1
0
CIRCLE
5
103
100
AcDbEntity
8
0
100
AcDbCircle
10
-853
20
502.00000000000034
30
0
40
6.0000000000000639
210
5.4738221262688167e-48
220
-6.0771633572862698e-64
230
1
0
CIRCLE
5
104
100
AcDbEntity
8
0
100
AcDbCircle
10
-1036.9999999999991
20
318
30
0
40
5.9999999999999432
210
2.7369110631344083e-48
220
-3.0385816786431353e-64
230
1
0
CIRCLE
5
105
100
AcDbEntity
8
0
100
AcDbCircle
10
-1236.9999999999964
20
117.99999009817839
30
0
40
5.9999999999999165
210
0
220
-0
230
1
0
CIRCLE
5
106
100
AcDbEntity
8
0
100
AcDbCircle
10
-1152.9999999999993
20
415.49999999999966
30
5.5511151231257827e-16
40
6.0000000000000888
210
1.3684555315672042e-48
220
-1.5192908393215676e-64
230
1
0
CIRCLE
5
107
100
AcDbEntity
8
0
100
AcDbCircle
10
-1138.289893768715
20
701.99999999999977
30
-5.5511151231257827e-16
40
6.0000000000000426
210
1.3684555315672042e-48
220
-1.5192908393215676e-64
230
1
0
CIRCLE
5
108
100
AcDbEntity
8
0
100
AcDbCircle
10
-853
20
418.00000000000023
30
0
40
6.0000000000000888
210
1.3684555315672042e-48
220
-1.5192908393215676e-64
230
1
0
CIRCLE
5
109
100
AcDbEntity
8
0
100
AcDbCircle
10
-753
20
518.00000000000023
30
0
40
6.0000000000000888
210
1.3684555315672042e-48
220
-1.5192908393215676e-64
230
1
0
CIRCLE
5
110
100
AcDbEntity
8
0
100
AcDbCircle
10
-1036.9999999999995
20
404.50000000000034
30
0
40
6.0000000000000329
210
4.1053665947016125e-48
220
-4.557872517964702e-64
230
1
0
CIRCLE
5
111
100
AcDbEntity
8
0
100
AcDbCircle
10
-1336.9999999999964
20
218.00000000000026
30
0
40
6.0000000000000888
210
1.3684555315672042e-48
220
-1.5192908393215676e-64
230
1
0
CIRCLE
5
112
100
AcDbEntity
8
0
100
AcDbCircle
10
-1152.9999999999998
20
501.49999283254022
30
0
40
6.0000000000000009
210
-1.3684555315672037e-47
220
-9.8607613152626476e-32
230
1
0
CIRCLE
5
113
100
AcDbEntity
8
0
100
AcDbCircle
10
-1251.7101062312875
20
702.00000000000034
30
-5.5511151231257827e-16
40
6.0000000000000888
210
1.3684555315672042e-48
220
-1.5192908393215676e-64
230
1
0
CIRCLE
5
114
100
AcDbEntity
8
0
100
AcDbCircle
10
-753
20
402.00000000000034
30
0
40
6.0000000000000764
210
-2.7369110631344083e-48
220
3.0385816786431349e-64
230
1
0
CIRCLE
5
115
100
AcDbEntity
8
0
100
AcDbCircle
10
-731.75000000000011
20
220.00000000000028
30
0
40
3.5000000000000018
210
-8.210733189403225e-48
220
9.1157450359294041e-64
230
1
0
CIRCLE
5
116
100
AcDbEntity
8
0
100
AcDbCircle
10
-855.00000000000023
20
96.750000000000398
30
0
40
3.5000000000000018
210
-8.210733189403225e-48
220
9.1157450359294041e-64
230
1
0
CIRCLE
5
117
100
AcDbEntity
8
0
100
AcDbCircle
10
-1235
20
96.750000000000398
30
0
40
3.5000000000000018
210
-8.210733189403225e-48
220
9.1157450359294041e-64
230
1
0
CIRCLE
5
118
100
AcDbEntity
8
0
100
AcDbCircle
10
-1358.25
20
220.00000000000043
30
0
40
3.5000000000000018
210
-8.210733189403225e-48
220
9.1157450359294041e-64
230
1
0
CIRCLE
5
119
100
AcDbEntity
8
0
100
AcDbCircle
10
-1358.25
20
600.00000000000045
30
0
40
3.4999999999999742
210
-0
220
0
230
1
0
CIRCLE
5
120
100
AcDbEntity
8
0
100
AcDbCircle
10
-1235
20
723.25000000000034
30
-5.5511151231257827e-16
40
3.4999999999999885
210
-1.3684555315672042e-47
220
1.5192908393215675e-63
230
1
0
CIRCLE
5
121
100
AcDbEntity
8
0
100
AcDbCircle
10
-855.00000000000011
20
723.25000000000034
30
-5.5511151231257827e-16
40
3.4999999999999885
210
-1.3684555315672042e-47
220
1.5192908393215675e-63
230
1
0
CIRCLE
5
122
100
AcDbEntity
8
0
100
AcDbCircle
10
-731.75000000000011
20
600.00000000000023
30
0
40
3.5000000000000018
210
-8.210733189403225e-48
220
9.1157450359294041e-64
230
1
0
LWPOLYLINE
5
123
100
AcDbEntity
8
0
100
AcDbPolyline
90
24
70
1
43
0.0
10
-1395
20
662.50000998377823
42
-0.99999999999999989
10
-1395
20
657.50000998377823
10
-1395
20
652.50000998377823
42
-0.99999999999999989
10
-1395
20
647.50000998377823
10
-1395
20
642.50000998377823
42
-0.99999999999999989
10
-1395
20
637.50000998377823
10
-1395
20
60.000000000000426
10
-1307.5
20
60.000000000000284
42
-0.99999999999999989
10
-1302.5
20
60.000000000000284
10
-1297.5
20
60.000000000000284
42
-0.99999999999999989
10
-1292.5
20
60.000000000000284
10
-1287.5
20
60.000000000000284
42
-0.99999999999999989
10
-1282.5
20
60.000000000000284
10
-695.00000000000011
20
60.000000000000213
10
-695.00000000000011
20
147.50000000000028
42
-0.99999999999999989
10
-695.00000000000011
20
152.50000000000028
10
-695.00000000000011
20
157.50000238418608
42
-0.99999999999999989
10
-695.00000000000011
20
162.50000238418608
10
-695.00000000000011
20
760.00000000000023
10
-782.50000000000023
20
760.00000000000011
42
-0.99999999999999989
10
-787.50000000000023
20
760.00000000000011
10
-1395
20
760.00000000000023
10
-1395
20
672.50000998377823
42
-0.99999999999999989
10
-1395
20
667.50000998377823
0
LWPOLYLINE
5
124
100
AcDbEntity
8
0
100
AcDbPolyline
90
8
70
1
43
0.0
10
-1344.5500000000004
20
679.55000000000052
10
-1344.5500000000004
20
709.55000000000064
10
-1314.5500000000011
20
709.55000000000064
10
-1314.5500000000013
20
715.45000000000061
10
-1345.4500000000007
20
715.45000000000073
10
-1345.4500000000007
20
710.45000000000073
10
-1350.4500000000005
20
710.45000000000095
10
-1350.4500000000005
20
679.55000000000052
0
LWPOLYLINE
5
125
100
AcDbEntity
8
0
100
AcDbPolyline
90
8
70
1
43
0.0
10
-739.54999999999995
20
679.55000000000052
10
-739.5500000000003
20
710.45000000000061
10
-744.55000000000041
20
710.45000000000061
10
-744.55000000000052
20
715.45000000000061
10
-775.4500000000005
20
715.45000000000027
10
-775.45000000000027
20
709.55000000000041
10
-745.45000000000061
20
709.55000000000052
10
-745.4500000000005
20
679.55000000000052
0
LWPOLYLINE
5
126
100
AcDbEntity
8
0
100
AcDbPolyline
90
8
70
1
43
0.0
10
-775.4500000000005
20
104.55000000000013
10
-744.55000000000052
20
104.55000000000013
10
-744.55000000000052
20
109.55000000000013
10
-739.5500000000003
20
109.55000000000041
10
-739.54999999999984
20
140.45000000000044
10
-745.45000000000027
20
140.45000000000044
10
-745.45000000000061
20
110.44999999999987
10
-775.4500000000005
20
110.44999999999987
0
ENDSEC
0
SECTION
2
OBJECTS
0
DICTIONARY
5
C
100
AcDbDictionary
3
ACAD_GROUP
350
D
3
ACAD_MLINESTYLE
350
17
0
DICTIONARY
5
D
100
AcDbDictionary
0
DICTIONARY
5
1A
330
C
100
AcDbDictionary
0
DICTIONARY
5
17
100
AcDbDictionary
0
ENDSEC
0
EOF
