0
SECTION
2
HEADER
9
$INSUNITS
70
4
9
$ACADVER
1
AC1014
9
$HANDSEED
5
FFFF
0
ENDSEC
0
SECTION
2
TABLES
0
TABLE
2
VPORT
5
8
100
AcDbSymbolTable
0
ENDTAB
0
TABLE
2
LTYPE
5
5
100
AcDbSymbolTable
0
LTYPE
5
14
100
AcDbSymbolTableRecord
100
AcDbLinetypeTableRecord
2
BYBLOCK
70
0
0
LTYPE
5
15
100
AcDbSymbolTableRecord
100
AcDbLinetypeTableRecord
2
BYLAYER
70
0
0
ENDTAB
0
TABLE
2
LAYER
5
2
100
AcDbSymbolTable
70
2
0
LAYER
5
50
100
AcDbSymbolTableRecord
100
AcDbLayerTableRecord
2
0
70
0
6
CONTINUOUS
0
ENDTAB
0
TABLE
2
STYLE
5
3
100
AcDbSymbolTable
70
1
0
STYLE
5
11
100
AcDbSymbolTableRecord
100
AcDbTextStyleTableRecord
2
STANDARD
70
0
0
ENDTAB
0
TABLE
2
VIEW
5
6
100
AcDbSymbolTable
70
0
0
ENDTAB
0
TABLE
2
UCS
5
7
100
AcDbSymbolTable
70
0
0
ENDTAB
0
TABLE
2
APPID
5
9
100
AcDbSymbolTable
70
2
0
APPID
5
12
100
AcDbSymbolTableRecord
100
AcDbRegAppTableRecord
2
ACAD
70
0
0
ENDTAB
0
TABLE
2
DIMSTYLE
5
A
100
AcDbSymbolTable
70
1
0
ENDTAB
0
TABLE
2
BLOCK_RECORD
5
1
100
AcDbSymbolTable
70
1
0
BLOCK_RECORD
5
1F
100
AcDbSymbolTableRecord
100
AcDbBlockTableRecord
2
*MODEL_SPACE
0
BLOCK_RECORD
5
1B
100
AcDbSymbolTableRecord
100
AcDbBlockTableRecord
2
*PAPER_SPACE
0
ENDTAB
0
ENDSEC
0
SECTION
2
BLOCKS
0
BLOCK
5
20
100
AcDbEntity
100
AcDbBlockBegin
2
*MODEL_SPACE
0
ENDBLK
5
21
100
AcDbEntity
100
AcDbBlockEnd
0
BLOCK
5
1C
100
AcDbEntity
100
AcDbBlockBegin
2
*PAPER_SPACE
0
ENDBLK
5
1D
100
AcDbEntity
100
AcDbBlockEnd
0
ENDSEC
0
SECTION
2
ENTITIES
0
LWPOLYLINE
5
100
100
AcDbEntity
8
0
100
AcDbPolyline
90
120
70
1
43
0.0
10
104.10000000000082
20
119.99999999999999
10
104.10000000000082
20
109.99999999999999
10
110.00000000000087
20
109.99999999999999
10
110.00000000000108
20
150.99999999999963
42
0.41421356237309509
10
106.00000000000108
20
154.99999999999997
10
95.000000000000853
20
154.99999999999997
42
-0.41421356237309298
10
90.000000000000867
20
159.99999999999997
10
90.000000000000853
20
179.99999999999997
10
104.10000000000082
20
179.99999999999997
10
104.10000000000082
20
169.99999999999997
10
110.00000000000087
20
170
10
110.00000000000108
20
210.99999999999977
42
0.41421356237309509
10
106.00000000000108
20
214.99999999999983
10
95.000000000000853
20
214.99999999999986
42
-0.41421356237309193
10
90.000000000000867
20
219.99999999999983
10
90.000000000000853
20
239.99999999999983
10
104.10000000000082
20
239.99999999999983
10
104.10000000000082
20
229.99999999999983
10
110.00000000000058
20
229.99999999999986
10
110.0000000000008
20
270.99999999999977
42
0.41421356237309509
10
106.0000000000008
20
274.99999999999983
10
95.000000000000568
20
274.99999999999989
42
-0.41421356237309193
10
90.000000000000583
20
279.99999999999983
10
90.000000000000568
20
299.99999999999983
10
104.10000000000053
20
299.99999999999983
10
104.10000000000053
20
289.99999999999983
10
110.0000000000007
20
289.99999999999983
10
110.00000000000028
20
509.99999999999989
10
147.50000000000031
20
509.99999999999977
42
0.99999999999999989
10
152.50000000000028
20
509.99999999999977
10
157.50000000000028
20
509.99999999999977
42
0.99999999999999989
10
162.50000000000028
20
509.99999999999977
10
710.00000000000011
20
509.99999999999994
10
710.00000000000023
20
470.00000000000023
10
715.90000000000032
20
470.00000000000023
10
715.90000000000032
20
480.00000000000023
10
730.00000000000023
20
480.00000000000023
10
730.00000000000023
20
460.00000000000023
42
-0.41421356237309509
10
725.00000000000023
20
455.00000000000023
10
714
20
455.00000000000011
42
0.41421356237308982
10
710.00000000000023
20
451.00000000000017
10
710.00000000000023
20
410.00000000000023
10
715.90000000000032
20
410.00000000000023
10
715.90000000000032
20
420.00000000000023
10
730.00000000000023
20
420.00000000000023
10
730.00000000000023
20
400.00000000000023
42
-0.41421356237309509
10
725.00000000000023
20
395.00000000000023
10
714
20
395.00000000000011
42
0.41421356237308982
10
710.00000000000045
20
391.00000000000017
10
710.00000000000023
20
350.00000000000034
10
715.90000000000032
20
350.00000000000034
10
715.90000000000032
20
360.00000000000034
10
730.00000000000023
20
360.00000000000034
10
730.00000000000023
20
340.00000000000034
42
-0.41421356237309509
10
725.00000000000023
20
335.00000000000034
10
714
20
335
42
0.41421356237308465
10
710.00000000000023
20
331.00000000000011
10
710.00000000000023
20
290.00000000000045
10
715.90000000000032
20
290.00000000000045
10
715.90000000000032
20
300.00000000000045
10
730.00000000000023
20
300.00000000000045
10
730.00000000000023
20
280.00000000000045
42
-0.41421356237309509
10
725.00000000000023
20
275.00000000000045
10
714
20
275.00000000000006
42
0.41421356237310542
10
710.00000000000023
20
271.00000000000011
10
710.00000000000045
20
230.00000000000028
10
715.90000000000043
20
230.00000000000028
10
715.90000000000043
20
240.00000000000028
10
730.00000000000045
20
240.00000000000028
10
730.00000000000045
20
220.00000000000028
42
-0.41421356237309509
10
725.00000000000045
20
215.00000000000028
10
714.00000000000023
20
215.00000000000023
42
0.41421356237307422
10
710.00000000000045
20
211.00000000000023
10
710.00000000000023
20
170.00000000000043
10
715.90000000000032
20
170.00000000000043
10
715.90000000000032
20
180.00000000000043
10
730.00000000000023
20
180.00000000000043
10
730.00000000000023
20
160.00000000000043
42
-0.41421356237309509
10
725.00000000000023
20
155.0000000000004
10
714
20
155.00000000000006
42
0.41421356237309509
10
710.00000000000045
20
151.00000000000006
10
710.00000000000045
20
110.00000000000041
10
715.90000000000043
20
110.00000000000041
10
715.90000000000043
20
120.00000000000043
10
730.00000000000045
20
120.00000000000043
10
730.00000000000045
20
100.00000000000043
42
-0.41421356237309509
10
725.00000000000045
20
95.000000000000412
10
714.00000000000023
20
95.000000000000071
42
0.41421356237307422
10
710.00000000000045
20
91.000000000000071
10
710.00000000000057
20
50.000000000000277
10
715.90000000000055
20
50.000000000000277
10
715.90000000000055
20
60.000000000000277
10
730.00000000000057
20
60.000000000000277
10
730.00000000000057
20
40.000000000000277
42
-0.41421356237309509
10
725.00000000000057
20
35.00000000000027
10
714.00000000000034
20
34.999999999999922
42
0.41421356237310508
10
710.00000000000057
20
30.999999999999922
10
710.00000000000045
20
-0.9999999999994329
42
-0.41421356237309509
10
707.00000000000045
20
-3.9999999999994356
10
683.00000000000068
20
-3.9999999999992806
42
-0.4142135623730947
10
680.00000000000091
20
-0.99999999999945466
10
680.00000000000068
20
5.000000000000159
10
140.00000000000057
20
4.9999999999998517
10
140.00000000000045
20
-0.99999999999983658
42
-0.41421356237309193
10
137.00000000000045
20
-3.9999999999998392
10
113.0000000000004
20
-3.9999999999996549
42
-0.41421356237309348
10
110.00000000000058
20
-0.99999999999985878
10
110.0000000000008
20
30.999999999999488
42
0.4142135623730947
10
106.0000000000008
20
34.999999999999829
10
95.000000000000568
20
34.999999999999837
42
-0.41421356237309426
10
90.000000000000583
20
39.999999999999844
10
90.000000000000568
20
59.999999999999844
10
104.10000000000053
20
59.999999999999844
10
104.10000000000053
20
49.999999999999844
10
110.00000000000058
20
49.999999999999844
10
110.00000000000108
20
90.999999999999645
42
0.41421356237309509
10
106.00000000000108
20
94.999999999999972
10
95.000000000000853
20
94.999999999999986
42
-0.41421356237309298
10
90.000000000000867
20
99.999999999999972
10
90.000000000000853
20
119.99999999999999
0
ENDSEC
0
SECTION
2
OBJECTS
0
DICTIONARY
5
C
100
AcDbDictionary
3
ACAD_GROUP
350
D
3
ACAD_MLINESTYLE
350
17
0
DICTIONARY
5
D
100
AcDbDictionary
0
DICTIONARY
5
1A
330
C
100
AcDbDictionary
0
DICTIONARY
5
17
100
AcDbDictionary
0
ENDSEC
0
EOF
