0
SECTION
2
HEADER
9
$INSUNITS
70
4
9
$ACADVER
1
AC1014
9
$HANDSEED
5
FFFF
0
ENDSEC
0
SECTION
2
TABLES
0
TABLE
2
VPORT
5
8
100
AcDbSymbolTable
0
ENDTAB
0
TABLE
2
LTYPE
5
5
100
AcDbSymbolTable
0
LTYPE
5
14
100
AcDbSymbolTableRecord
100
AcDbLinetypeTableRecord
2
BYBLOCK
70
0
0
LTYPE
5
15
100
AcDbSymbolTableRecord
100
AcDbLinetypeTableRecord
2
BYLAYER
70
0
0
ENDTAB
0
TABLE
2
LAYER
5
2
100
AcDbSymbolTable
70
2
0
LAYER
5
50
100
AcDbSymbolTableRecord
100
AcDbLayerTableRecord
2
0
70
0
6
CONTINUOUS
0
ENDTAB
0
TABLE
2
STYLE
5
3
100
AcDbSymbolTable
70
1
0
STYLE
5
11
100
AcDbSymbolTableRecord
100
AcDbTextStyleTableRecord
2
STANDARD
70
0
0
ENDTAB
0
TABLE
2
VIEW
5
6
100
AcDbSymbolTable
70
0
0
ENDTAB
0
TABLE
2
UCS
5
7
100
AcDbSymbolTable
70
0
0
ENDTAB
0
TABLE
2
APPID
5
9
100
AcDbSymbolTable
70
2
0
APPID
5
12
100
AcDbSymbolTableRecord
100
AcDbRegAppTableRecord
2
ACAD
70
0
0
ENDTAB
0
TABLE
2
DIMSTYLE
5
A
100
AcDbSymbolTable
70
1
0
ENDTAB
0
TABLE
2
BLOCK_RECORD
5
1
100
AcDbSymbolTable
70
1
0
BLOCK_RECORD
5
1F
100
AcDbSymbolTableRecord
100
AcDbBlockTableRecord
2
*MODEL_SPACE
0
BLOCK_RECORD
5
1B
100
AcDbSymbolTableRecord
100
AcDbBlockTableRecord
2
*PAPER_SPACE
0
ENDTAB
0
ENDSEC
0
SECTION
2
BLOCKS
0
BLOCK
5
20
100
AcDbEntity
100
AcDbBlockBegin
2
*MODEL_SPACE
0
ENDBLK
5
21
100
AcDbEntity
100
AcDbBlockEnd
0
BLOCK
5
1C
100
AcDbEntity
100
AcDbBlockBegin
2
*PAPER_SPACE
0
ENDBLK
5
1D
100
AcDbEntity
100
AcDbBlockEnd
0
ENDSEC
0
SECTION
2
ENTITIES
0
ARC
5
100
100
AcDbEntity
8
0
100
AcDbCircle
10
769.00001145899307
20
510.00000759959215
30
0
40
2.5
210
1.8018807232078936e-33
220
2.2066674601218657e-49
230
1
100
AcDbArc
50
180
51
359.99982583017618
0
LINE
5
101
100
AcDbEntity
8
0
100
AcDbLine
10
766.50001145899307
20
510.00000759959215
30
4.504701808019734e-33
11
762.50000000000057
21
510.00000759959215
31
-1.1122376524357516e-46
0
LINE
5
102
100
AcDbEntity
8
0
100
AcDbLine
10
762.50000000000057
20
509.99999999999966
30
0
11
725.00000000000057
21
509.99999999999966
31
5.9164567891575122e-30
0
LINE
5
103
100
AcDbEntity
8
0
100
AcDbLine
10
725.00000000000057
20
509.99999999999966
30
5.9164567891575122e-30
11
725.00000000000057
21
244.99999999999986
31
0
0
LINE
5
104
100
AcDbEntity
8
0
100
AcDbLine
10
725.00000000000057
20
244.99999999999986
30
0
11
1365.0000000000011
21
244.99999999999974
31
4.5438388140730388e-29
0
LINE
5
105
100
AcDbEntity
8
0
100
AcDbLine
10
1365.0000000000011
20
244.99999999999974
30
4.5438388140730388e-29
11
1365.0000000000014
21
509.99999999999955
31
0
0
LINE
5
106
100
AcDbEntity
8
0
100
AcDbLine
10
1365.0000000000014
20
509.99999999999955
30
0
11
771.50001145898159
21
509.99999999999949
31
-4.5047018079989205e-33
0
LWPOLYLINE
5
107
100
AcDbEntity
8
0
100
AcDbPolyline
90
4
70
1
43
0.0
10
745.4500000000005
20
289.99999999999972
10
739.55000000000041
20
289.99999999999972
10
739.5500000000003
20
259.99999999999972
10
745.45000000000027
20
259.99999999999972
0
LWPOLYLINE
5
108
100
AcDbEntity
8
0
100
AcDbPolyline
90
4
70
1
43
0.0
10
745.4500000000005
20
409.99999999999966
10
739.55000000000041
20
409.99999999999966
10
739.5500000000003
20
379.99999999999966
10
745.45000000000027
20
379.99999999999966
0
LWPOLYLINE
5
109
100
AcDbEntity
8
0
100
AcDbPolyline
90
4
70
1
43
0.0
10
745.4500000000005
20
469.99999999999966
10
739.55000000000041
20
469.99999999999966
10
739.5500000000003
20
439.99999999999966
10
745.45000000000027
20
439.99999999999966
0
LWPOLYLINE
5
110
100
AcDbEntity
8
0
100
AcDbPolyline
90
4
70
1
43
0.0
10
745.4500000000005
20
349.99999999999966
10
739.55000000000041
20
349.99999999999966
10
739.5500000000003
20
319.99999999999966
10
745.45000000000027
20
319.99999999999966
0
LWPOLYLINE
5
111
100
AcDbEntity
8
0
100
AcDbPolyline
90
4
70
1
43
0.0
10
1344.5500000000011
20
319.99999999999955
10
1350.450000000001
20
319.99999999999955
10
1350.450000000001
20
349.99999999999955
10
1344.5500000000011
20
349.99999999999955
0
LWPOLYLINE
5
112
100
AcDbEntity
8
0
100
AcDbPolyline
90
4
70
1
43
0.0
10
1344.5500000000011
20
259.99999999999966
10
1350.450000000001
20
259.9999999999996
10
1350.450000000001
20
289.9999999999996
10
1344.5500000000011
20
289.99999999999966
0
LWPOLYLINE
5
113
100
AcDbEntity
8
0
100
AcDbPolyline
90
4
70
1
43
0.0
10
1344.5500000000011
20
379.99999999999955
10
1350.450000000001
20
379.99999999999955
10
1350.450000000001
20
409.99999999999955
10
1344.5500000000011
20
409.99999999999955
0
LWPOLYLINE
5
114
100
AcDbEntity
8
0
100
AcDbPolyline
90
4
70
1
43
0.0
10
1350.450000000001
20
469.99999999999955
10
1344.5500000000011
20
469.99999999999955
10
1344.5500000000011
20
439.99999999999955
10
1350.450000000001
20
439.99999999999955
0
ENDSEC
0
SECTION
2
OBJECTS
0
DICTIONARY
5
C
100
AcDbDictionary
3
ACAD_GROUP
350
D
3
ACAD_MLINESTYLE
350
17
0
DICTIONARY
5
D
100
AcDbDictionary
0
DICTIONARY
5
1A
330
C
100
AcDbDictionary
0
DICTIONARY
5
17
100
AcDbDictionary
0
ENDSEC
0
EOF
