0
SECTION
2
HEADER
9
$INSUNITS
70
4
9
$ACADVER
1
AC1014
9
$HANDSEED
5
FFFF
0
ENDSEC
0
SECTION
2
TABLES
0
TABLE
2
VPORT
5
8
100
AcDbSymbolTable
0
ENDTAB
0
TABLE
2
LTYPE
5
5
100
AcDbSymbolTable
0
LTYPE
5
14
100
AcDbSymbolTableRecord
100
AcDbLinetypeTableRecord
2
BYBLOCK
70
0
0
LTYPE
5
15
100
AcDbSymbolTableRecord
100
AcDbLinetypeTableRecord
2
BYLAYER
70
0
0
ENDTAB
0
TABLE
2
LAYER
5
2
100
AcDbSymbolTable
70
2
0
LAYER
5
50
100
AcDbSymbolTableRecord
100
AcDbLayerTableRecord
2
0
70
0
6
CONTINUOUS
0
ENDTAB
0
TABLE
2
STYLE
5
3
100
AcDbSymbolTable
70
1
0
STYLE
5
11
100
AcDbSymbolTableRecord
100
AcDbTextStyleTableRecord
2
STANDARD
70
0
0
ENDTAB
0
TABLE
2
VIEW
5
6
100
AcDbSymbolTable
70
0
0
ENDTAB
0
TABLE
2
UCS
5
7
100
AcDbSymbolTable
70
0
0
ENDTAB
0
TABLE
2
APPID
5
9
100
AcDbSymbolTable
70
2
0
APPID
5
12
100
AcDbSymbolTableRecord
100
AcDbRegAppTableRecord
2
ACAD
70
0
0
ENDTAB
0
TABLE
2
DIMSTYLE
5
A
100
AcDbSymbolTable
70
1
0
ENDTAB
0
TABLE
2
BLOCK_RECORD
5
1
100
AcDbSymbolTable
70
1
0
BLOCK_RECORD
5
1F
100
AcDbSymbolTableRecord
100
AcDbBlockTableRecord
2
*MODEL_SPACE
0
BLOCK_RECORD
5
1B
100
AcDbSymbolTableRecord
100
AcDbBlockTableRecord
2
*PAPER_SPACE
0
ENDTAB
0
ENDSEC
0
SECTION
2
BLOCKS
0
BLOCK
5
20
100
AcDbEntity
100
AcDbBlockBegin
2
*MODEL_SPACE
0
ENDBLK
5
21
100
AcDbEntity
100
AcDbBlockEnd
0
BLOCK
5
1C
100
AcDbEntity
100
AcDbBlockBegin
2
*PAPER_SPACE
0
ENDBLK
5
1D
100
AcDbEntity
100
AcDbBlockEnd
0
ENDSEC
0
SECTION
2
ENTITIES
0
LWPOLYLINE
5
100
100
AcDbEntity
8
0
100
AcDbPolyline
90
4
70
1
43
0.0
10
-1344.5500000000006
20
289.99999999999966
10
-1350.4500000000007
20
289.99999999999966
10
-1350.4500000000007
20
259.99999999999966
10
-1344.5500000000006
20
259.99999999999966
0
LWPOLYLINE
5
101
100
AcDbEntity
8
0
100
AcDbPolyline
90
4
70
1
43
0.0
10
-739.55000000000064
20
289.99999999999977
10
-745.45000000000073
20
289.99999999999977
10
-745.45000000000073
20
259.99999999999977
10
-739.55000000000064
20
259.99999999999977
0
LWPOLYLINE
5
102
100
AcDbEntity
8
0
100
AcDbPolyline
90
4
70
1
43
0.0
10
-745.45000000000073
20
79.999999999999773
10
-739.55000000000064
20
79.999999999999773
10
-739.55000000000064
20
109.99999999999979
10
-745.45000000000073
20
109.99999999999979
0
LWPOLYLINE
5
103
100
AcDbEntity
8
0
100
AcDbPolyline
90
4
70
1
43
0.0
10
-745.45000000000073
20
139.99999999999977
10
-739.55000000000064
20
139.99999999999977
10
-739.55000000000064
20
169.99999999999974
10
-745.45000000000073
20
169.99999999999977
0
LWPOLYLINE
5
104
100
AcDbEntity
8
0
100
AcDbPolyline
90
4
70
1
43
0.0
10
-745.45000000000073
20
19.999999999999769
10
-739.55000000000064
20
19.999999999999769
10
-739.55000000000064
20
49.99999999999978
10
-745.45000000000073
20
49.999999999999773
0
LWPOLYLINE
5
105
100
AcDbEntity
8
0
100
AcDbPolyline
90
4
70
1
43
0.0
10
-745.45000000000073
20
199.99999999999974
10
-739.55000000000064
20
199.99999999999974
10
-739.55000000000064
20
229.99999999999974
10
-745.45000000000073
20
229.99999999999974
0
LWPOLYLINE
5
106
100
AcDbEntity
8
0
100
AcDbPolyline
90
22
70
1
43
0.0
10
-1315.0000000000005
20
2.9999999999996927
42
-0.41421356237303453
10
-1318.0000000000007
20
-3.091971123581061e-13
10
-1342.0000000000005
20
-6.5836225360271783e-13
42
-0.41421356237303447
10
-1345.0000000000009
20
2.9999999999996878
10
-1345.0000000000002
20
4.9999999999996874
10
-1365.0000000000005
20
4.9999999999996447
10
-1365.0000000000005
20
509.99999999999966
10
-1307.5000000000009
20
509.99999999999966
42
0.99999999999999989
10
-1302.5000000000009
20
509.99999999999966
10
-1297.5000000000009
20
509.99999999999966
42
0.99999999999999989
10
-1292.5000000000009
20
509.99999999999966
10
-1287.5000000000009
20
509.99999999999966
42
0.99999999999999989
10
-1282.5000000000011
20
509.99999999999966
10
-725.00000000000068
20
509.99999999999977
10
-725.00000000000057
20
4.9999999999997744
10
-745.00000000000057
20
4.9999999999997717
10
-745.00000000000068
20
2.9999999999997722
42
-0.41421356237309481
10
-748.00000000000068
20
-2.2864490050787696e-13
10
-772.00000000000057
20
-2.7255975254547593e-13
42
-0.41421356237307405
10
-775.00000000000057
20
2.9999999999997682
10
-775.00000000000023
20
5.0000000000000568
10
-1315.0000000000005
20
5.0000000000000568
0
LWPOLYLINE
5
107
100
AcDbEntity
8
0
100
AcDbPolyline
90
4
70
1
43
0.0
10
-1350.4500000000007
20
139.99999999999969
10
-1344.5500000000006
20
139.99999999999969
10
-1344.5500000000006
20
169.99999999999969
10
-1350.4500000000007
20
169.99999999999972
0
LWPOLYLINE
5
108
100
AcDbEntity
8
0
100
AcDbPolyline
90
4
70
1
43
0.0
10
-1350.4500000000007
20
19.999999999999684
10
-1344.5500000000006
20
19.999999999999684
10
-1344.5500000000006
20
49.999999999999687
10
-1350.4500000000007
20
49.99999999999968
0
LWPOLYLINE
5
109
100
AcDbEntity
8
0
100
AcDbPolyline
90
4
70
1
43
0.0
10
-1350.4500000000007
20
79.999999999999687
10
-1344.5500000000006
20
79.999999999999687
10
-1344.5500000000006
20
109.9999999999997
10
-1350.4500000000007
20
109.99999999999969
0
LWPOLYLINE
5
110
100
AcDbEntity
8
0
100
AcDbPolyline
90
4
70
1
43
0.0
10
-1350.4500000000007
20
199.99999999999969
10
-1344.5500000000006
20
199.99999999999969
10
-1344.5500000000006
20
229.99999999999969
10
-1350.4500000000007
20
229.99999999999969
0
ENDSEC
0
SECTION
2
OBJECTS
0
DICTIONARY
5
C
100
AcDbDictionary
3
ACAD_GROUP
350
D
3
ACAD_MLINESTYLE
350
17
0
DICTIONARY
5
D
100
AcDbDictionary
0
DICTIONARY
5
1A
330
C
100
AcDbDictionary
0
DICTIONARY
5
17
100
AcDbDictionary
0
ENDSEC
0
EOF
