0
SECTION
2
HEADER
9
$INSUNITS
70
4
9
$ACADVER
1
AC1014
9
$HANDSEED
5
FFFF
0
ENDSEC
0
SECTION
2
TABLES
0
TABLE
2
VPORT
5
8
100
AcDbSymbolTable
0
ENDTAB
0
TABLE
2
LTYPE
5
5
100
AcDbSymbolTable
0
LTYPE
5
14
100
AcDbSymbolTableRecord
100
AcDbLinetypeTableRecord
2
BYBLOCK
70
0
0
LTYPE
5
15
100
AcDbSymbolTableRecord
100
AcDbLinetypeTableRecord
2
BYLAYER
70
0
0
ENDTAB
0
TABLE
2
LAYER
5
2
100
AcDbSymbolTable
70
2
0
LAYER
5
50
100
AcDbSymbolTableRecord
100
AcDbLayerTableRecord
2
0
70
0
6
CONTINUOUS
0
ENDTAB
0
TABLE
2
STYLE
5
3
100
AcDbSymbolTable
70
1
0
STYLE
5
11
100
AcDbSymbolTableRecord
100
AcDbTextStyleTableRecord
2
STANDARD
70
0
0
ENDTAB
0
TABLE
2
VIEW
5
6
100
AcDbSymbolTable
70
0
0
ENDTAB
0
TABLE
2
UCS
5
7
100
AcDbSymbolTable
70
0
0
ENDTAB
0
TABLE
2
APPID
5
9
100
AcDbSymbolTable
70
2
0
APPID
5
12
100
AcDbSymbolTableRecord
100
AcDbRegAppTableRecord
2
ACAD
70
0
0
ENDTAB
0
TABLE
2
DIMSTYLE
5
A
100
AcDbSymbolTable
70
1
0
ENDTAB
0
TABLE
2
BLOCK_RECORD
5
1
100
AcDbSymbolTable
70
1
0
BLOCK_RECORD
5
1F
100
AcDbSymbolTableRecord
100
AcDbBlockTableRecord
2
*MODEL_SPACE
0
BLOCK_RECORD
5
1B
100
AcDbSymbolTableRecord
100
AcDbBlockTableRecord
2
*PAPER_SPACE
0
ENDTAB
0
ENDSEC
0
SECTION
2
BLOCKS
0
BLOCK
5
20
100
AcDbEntity
100
AcDbBlockBegin
2
*MODEL_SPACE
0
ENDBLK
5
21
100
AcDbEntity
100
AcDbBlockEnd
0
BLOCK
5
1C
100
AcDbEntity
100
AcDbBlockBegin
2
*PAPER_SPACE
0
ENDBLK
5
1D
100
AcDbEntity
100
AcDbBlockEnd
0
ENDSEC
0
SECTION
2
ENTITIES
0
LWPOLYLINE
5
100
100
AcDbEntity
8
0
100
AcDbPolyline
90
8
70
1
43
0.0
10
-312.00000000000057
20
80.000000000000256
10
-408.00000000000068
20
80.000000000000298
42
0.41421356237310675
10
-410.00000000000057
20
78.000000000000284
10
-410.00000000000068
20
42.000000000000341
42
0.41421356237310675
10
-408.00000000000068
20
40.000000000000298
10
-312.00000000000057
20
40.000000000000284
42
0.41421356237309637
10
-310.00000000000063
20
42.000000000000284
10
-310.00000000000063
20
78.000000000000227
42
0.41421356237309637
0
CIRCLE
5
101
100
AcDbEntity
8
0
100
AcDbCircle
10
-416.00000000000068
20
65.000000000000313
30
0
40
2.0000000000000018
210
2.1693674893577923e-32
220
2.4651903288156605e-32
230
1
0
CIRCLE
5
102
100
AcDbEntity
8
0
100
AcDbCircle
10
-304.00000000000063
20
65.000000000000256
30
0
40
2.0000000000000018
210
2.1693674893577923e-32
220
2.4651903288156605e-32
230
1
0
CIRCLE
5
103
100
AcDbEntity
8
0
100
AcDbCircle
10
-490.00000000000057
20
85.000000000000355
30
0
40
2.0000000000000018
210
2.1693674893577923e-32
220
2.4651903288156605e-32
230
1
0
CIRCLE
5
104
100
AcDbEntity
8
0
100
AcDbCircle
10
-490.00000000000057
20
40.000000000000355
30
0
40
2.0000000000000018
210
2.1693674893577923e-32
220
2.4651903288156605e-32
230
1
0
CIRCLE
5
105
100
AcDbEntity
8
0
100
AcDbCircle
10
-430.00000000000068
20
40.00000000000032
30
0
40
2.0000000000000018
210
2.1693674893577923e-32
220
2.4651903288156605e-32
230
1
0
CIRCLE
5
106
100
AcDbEntity
8
0
100
AcDbCircle
10
-430.00000000000057
20
85.000000000000313
30
0
40
2.0000000000000018
210
2.1693674893577923e-32
220
2.4651903288156605e-32
230
1
0
LWPOLYLINE
5
107
100
AcDbEntity
8
0
100
AcDbPolyline
90
8
70
1
43
0.0
10
-450.50000000000068
20
87.500000000000313
10
-469.50000000000074
20
87.500000000000341
42
0.41421356237310802
10
-471.50000000000063
20
85.500000000000455
10
-471.5000000000008
20
39.500000000000369
42
0.4142135623731048
10
-469.50000000000074
20
37.500000000000341
10
-450.50000000000068
20
37.500000000000355
42
0.41421356237310675
10
-448.50000000000068
20
39.500000000000369
10
-448.50000000000068
20
85.500000000000455
42
0.41421356237310802
0
CIRCLE
5
108
100
AcDbEntity
8
0
100
AcDbCircle
10
-416.00000000000091
20
85.000001266598758
30
0
40
2
210
1.6960509462251357e-31
220
-9.6409334345548231e-47
230
1
0
CIRCLE
5
109
100
AcDbEntity
8
0
100
AcDbCircle
10
-304.00000000000045
20
85.000000000000441
30
0
40
2.0000000000000133
210
1.6980230984882239e-30
220
-9.6521438222696242e-46
230
1
0
LWPOLYLINE
5
110
100
AcDbEntity
8
0
100
AcDbPolyline
90
124
70
1
43
0.0
10
-104.10000000000025
20
110.0000000000002
10
-104.10000000000025
20
120.0000000000002
10
-90.00000000000027
20
120.00000000000017
10
-90.000000000000298
20
100.00000000000017
42
-0.41421356237309298
10
-95.000000000000284
20
95.000000000000199
10
-106.00000000000051
20
94.999999999999858
42
0.41421356237309509
10
-110.00000000000027
20
90.999999999999858
10
-110.00000000000028
20
50.000000000000057
10
-104.10000000000025
20
50.000000000000057
10
-104.10000000000025
20
60.000000000000057
10
-90.00000000000027
20
60.000000000000043
10
-90.000000000000284
20
40.000000000000036
42
-0.41421356237309298
10
-95.000000000000284
20
35.000000000000043
10
-106.00000000000051
20
34.999999999999702
42
0.41421356237309509
10
-110.00000000000027
20
30.999999999999702
10
-110.0000000000004
20
-0.9999999999996656
42
-0.41421356237309342
10
-113.0000000000004
20
-3.9999999999996643
10
-137.00000000000017
20
-4.0000000000000311
42
-0.41421356237309392
10
-140.00000000000057
20
-0.99999999999964451
10
-140.00000000000043
20
5.0000000000001519
10
-680.00000000000023
20
5.0000000000004583
10
-680.00000000000023
20
-0.99999999999926081
42
-0.41421356237307405
10
-683.00000000000023
20
-3.9999999999992597
10
-707.00000000000068
20
-3.9999999999987863
42
-0.41421356237309587
10
-710.00000000000023
20
-0.99999999999923261
10
-710
20
31.000000000000139
42
0.41421356237310542
10
-714
20
35.000000000000483
10
-725.00000000000023
20
35.00000000000049
42
-0.41421356237309553
10
-730.00000000000023
20
40.000000000000497
10
-730.00000000000023
20
60.000000000000497
10
-715.90000000000032
20
60.00000000000049
10
-715.90000000000032
20
50.000000000000483
10
-710.00000000000023
20
50.000000000000483
10
-709.99999999999989
20
91.000000000000284
42
0.41421356237307422
10
-713.99999999999989
20
95.000000000000639
10
-725.00000000000011
20
95.000000000000639
42
-0.41421356237309509
10
-730.00000000000011
20
100.00000000000064
10
-730.00000000000011
20
120.00000000000063
10
-715.9000000000002
20
120.00000000000063
10
-715.9000000000002
20
110.00000000000063
10
-710
20
110.00000000000063
10
-709.99999999999977
20
151.00000000000028
42
0.41421356237309509
10
-713.99999999999977
20
155.00000000000063
10
-725
20
155.00000000000063
42
-0.41421356237309509
10
-730
20
160.00000000000063
10
-730
20
180.00000000000063
10
-715.90000000000009
20
180.0000000000006
10
-715.90000000000009
20
170.0000000000006
10
-710
20
170.0000000000006
10
-709.99999999999989
20
211.0000000000004
42
0.41421356237308726
10
-713.99999999999989
20
215.00000000000045
10
-725.00000000000011
20
215.00000000000051
42
-0.41421356237309509
10
-730.00000000000011
20
220.00000000000051
10
-730.00000000000011
20
240.00000000000051
10
-715.9000000000002
20
240.00000000000045
10
-715.9000000000002
20
230.00000000000045
10
-710.00000000000011
20
230.00000000000045
10
-709.99999999999989
20
271.0000000000004
42
0.41421356237308726
10
-713.99999999999989
20
275.00000000000045
10
-725.00000000000011
20
275.00000000000051
42
-0.41421356237309509
10
-730.00000000000011
20
280.00000000000051
10
-730.00000000000011
20
300.00000000000051
10
-715.9000000000002
20
300.00000000000045
10
-715.9000000000002
20
290.00000000000045
10
-710.00000000000011
20
290.00000000000045
10
-709.99999999999977
20
331.00000000000023
42
0.41421356237310542
10
-713.99999999999977
20
335.00000000000057
10
-725
20
335.00000000000057
42
-0.41421356237309509
10
-730
20
340.00000000000057
10
-730
20
360.00000000000057
10
-715.90000000000009
20
360.00000000000057
10
-715.90000000000009
20
350.00000000000057
10
-709.99999999999989
20
350.00000000000057
10
-709.99999999999977
20
391.00000000000034
42
0.41421356237310542
10
-713.99999999999977
20
395.00000000000045
10
-725
20
395.00000000000045
42
-0.41421356237309509
10
-730
20
400.00000000000045
10
-730
20
420.00000000000045
10
-715.90000000000009
20
420.00000000000045
10
-715.90000000000009
20
410.00000000000045
10
-710
20
410.00000000000045
10
-709.99999999999977
20
451.00000000000034
42
0.41421356237310542
10
-713.99999999999977
20
455.00000000000045
10
-725
20
455.00000000000045
42
-0.41421356237309509
10
-730
20
460.00000000000045
10
-730
20
480.00000000000045
10
-715.90000000000009
20
480.00000000000045
10
-715.90000000000009
20
470.00000000000045
10
-710
20
470.00000000000045
10
-710.00000000000045
20
510.00000000000045
10
-672.50000000000011
20
510.00000000000045
42
0.99999999999999989
10
-667.50000000000011
20
510.00000000000011
10
-662.50000000000011
20
510.00000000000011
42
0.99999999999999989
10
-657.50000000000011
20
510.00000000000011
10
-652.50000968575478
20
510.00000000000011
42
0.99999999999999989
10
-647.50000968575478
20
510.00000000000011
10
-642.50000968575478
20
510.00000000000006
42
0.99999999999999989
10
-637.50000968575466
20
510.00000000000006
10
-109.99999999999987
20
509.99999999999989
10
-110
20
290.00000000000006
10
-104.09999999999997
20
290.00000000000006
10
-104.09999999999997
20
300.00000000000006
10
-89.999999999999986
20
300.00000000000006
10
-89.999999999999986
20
280
42
-0.41421356237308982
10
-95
20
275.00000000000006
10
-106.00000000000023
20
274.99999999999994
42
0.41421356237309509
10
-110.00000000000027
20
271
10
-110.00000000000028
20
230.00000000000003
10
-104.10000000000025
20
230.00000000000003
10
-104.10000000000025
20
240.00000000000003
10
-90.00000000000027
20
240.00000000000003
10
-90.00000000000027
20
220
42
-0.41421356237308982
10
-95.000000000000284
20
215.00000000000003
10
-106.00000000000051
20
214.99999999999997
42
0.41421356237309509
10
-110.00000000000027
20
210.99999999999997
10
-110.00000000000057
20
170.00000000000017
10
-104.10000000000053
20
170.00000000000017
10
-104.10000000000053
20
180.00000000000017
10
-90.000000000000554
20
180.00000000000017
10
-90.000000000000568
20
160.00000000000014
42
-0.41421356237307322
10
-95.000000000000284
20
155.0000000000002
10
-106.00000000000051
20
154.99999999999986
42
0.41421356237309509
10
-110.00000000000027
20
150.99999999999986
10
-110.00000000000028
20
110.0000000000002
0
ENDSEC
0
SECTION
2
OBJECTS
0
DICTIONARY
5
C
100
AcDbDictionary
3
ACAD_GROUP
350
D
3
ACAD_MLINESTYLE
350
17
0
DICTIONARY
5
D
100
AcDbDictionary
0
DICTIONARY
5
1A
330
C
100
AcDbDictionary
0
DICTIONARY
5
17
100
AcDbDictionary
0
ENDSEC
0
EOF
