0
SECTION
2
HEADER
9
$INSUNITS
70
4
9
$ACADVER
1
AC1014
9
$HANDSEED
5
FFFF
0
ENDSEC
0
SECTION
2
TABLES
0
TABLE
2
VPORT
5
8
100
AcDbSymbolTable
0
ENDTAB
0
TABLE
2
LTYPE
5
5
100
AcDbSymbolTable
0
LTYPE
5
14
100
AcDbSymbolTableRecord
100
AcDbLinetypeTableRecord
2
BYBLOCK
70
0
0
LTYPE
5
15
100
AcDbSymbolTableRecord
100
AcDbLinetypeTableRecord
2
BYLAYER
70
0
0
ENDTAB
0
TABLE
2
LAYER
5
2
100
AcDbSymbolTable
70
2
0
LAYER
5
50
100
AcDbSymbolTableRecord
100
AcDbLayerTableRecord
2
0
70
0
6
CONTINUOUS
0
ENDTAB
0
TABLE
2
STYLE
5
3
100
AcDbSymbolTable
70
1
0
STYLE
5
11
100
AcDbSymbolTableRecord
100
AcDbTextStyleTableRecord
2
STANDARD
70
0
0
ENDTAB
0
TABLE
2
VIEW
5
6
100
AcDbSymbolTable
70
0
0
ENDTAB
0
TABLE
2
UCS
5
7
100
AcDbSymbolTable
70
0
0
ENDTAB
0
TABLE
2
APPID
5
9
100
AcDbSymbolTable
70
2
0
APPID
5
12
100
AcDbSymbolTableRecord
100
AcDbRegAppTableRecord
2
ACAD
70
0
0
ENDTAB
0
TABLE
2
DIMSTYLE
5
A
100
AcDbSymbolTable
70
1
0
ENDTAB
0
TABLE
2
BLOCK_RECORD
5
1
100
AcDbSymbolTable
70
1
0
BLOCK_RECORD
5
1F
100
AcDbSymbolTableRecord
100
AcDbBlockTableRecord
2
*MODEL_SPACE
0
BLOCK_RECORD
5
1B
100
AcDbSymbolTableRecord
100
AcDbBlockTableRecord
2
*PAPER_SPACE
0
ENDTAB
0
ENDSEC
0
SECTION
2
BLOCKS
0
BLOCK
5
20
100
AcDbEntity
100
AcDbBlockBegin
2
*MODEL_SPACE
0
ENDBLK
5
21
100
AcDbEntity
100
AcDbBlockEnd
0
BLOCK
5
1C
100
AcDbEntity
100
AcDbBlockBegin
2
*PAPER_SPACE
0
ENDBLK
5
1D
100
AcDbEntity
100
AcDbBlockEnd
0
ENDSEC
0
SECTION
2
ENTITIES
0
SPLINE
5
100
100
AcDbEntity
8
0
100
AcDbSpline
70
0
71
3
72
9
73
5
74
0
42
0.000000001
43
0.0000000001
44
0.0000000001
40
0
40
0
40
0
40
0
40
0.071648098588033143
40
0.14429419175936523
40
0.14429419175936523
40
0.14429419175936523
40
0.14429419175936523
10
761.58714843749965
20
296.15746093750016
30
0
10
761.76451025511869
20
296.32017447470861
30
0
10
762.12170438345788
20
296.64786800464861
30
0
10
762.35074321236721
20
297.07515320317566
30
0
10
762.46605468749965
20
297.29027343750016
30
0
0
LINE
5
101
100
AcDbEntity
8
0
100
AcDbLine
10
762.46605468749965
20
297.29027343750016
30
0
11
764.11156249999965
21
297.29027343750016
31
0
0
LINE
5
102
100
AcDbEntity
8
0
100
AcDbLine
10
764.11156249999965
20
297.29027343750016
30
0
11
764.11156249999965
21
290.01000000000016
31
0
0
LINE
5
103
100
AcDbEntity
8
0
100
AcDbLine
10
764.11156249999965
20
290.01000000000016
30
0
11
762.09984374999965
21
290.01000000000016
31
0
0
LINE
5
104
100
AcDbEntity
8
0
100
AcDbLine
10
762.09984374999965
20
290.01000000000016
30
0
11
762.09984374999965
21
294.78050781250016
31
0
0
SPLINE
5
105
100
AcDbEntity
8
0
100
AcDbSpline
70
0
71
3
72
9
73
5
74
0
42
0.000000001
43
0.0000000001
44
0.0000000001
40
0
40
0
40
0
40
0
40
0.058652339888301673
40
0.11228178912571336
40
0.11228178912571336
40
0.11228178912571336
40
0.11228178912571336
10
762.09984374999965
20
294.78050781250016
30
0
10
761.94205174789954
20
294.66460597957649
30
0
10
761.63998079319845
20
294.44272795751635
30
0
10
761.31012704640034
20
294.264871789187
30
0
10
761.15257812499965
20
294.17992187500016
30
0
0
SPLINE
5
106
100
AcDbEntity
8
0
100
AcDbSpline
70
0
71
3
72
9
73
5
74
0
42
0.000000001
43
0.0000000001
44
0.0000000001
40
0
40
0
40
0
40
0
40
0.055973730874166613
40
0.12252522930936134
40
0.12252522930936134
40
0.12252522930936134
40
0.12252522930936134
10
761.15257812499965
20
294.17992187500016
30
0
10
760.98297962789684
20
294.10170857955342
30
0
10
760.61173235844547
20
293.93050144702909
30
0
10
760.2217986205344
20
293.80735673187826
30
0
10
760.00999999999965
20
293.74046875000016
30
0
0
LINE
5
107
100
AcDbEntity
8
0
100
AcDbLine
10
760.00999999999965
20
293.74046875000016
30
0
11
760.00999999999965
21
295.37132812500016
31
0
0
SPLINE
5
108
100
AcDbEntity
8
0
100
AcDbSpline
70
0
71
3
72
9
73
5
74
0
42
0.000000001
43
0.0000000001
44
0.0000000001
40
0
40
0
40
0
40
0
40
0.097131923718414365
40
0.17695601493216509
40
0.17695601493216509
40
0.17695601493216509
40
0.17695601493216509
10
760.00999999999965
20
295.37132812500016
30
0
10
760.31808112723252
20
295.47688284928358
30
0
10
760.87934673861878
20
295.6691836156167
30
0
10
761.36711726678027
20
296.0056723349303
30
0
10
761.58714843749965
20
296.15746093750016
30
0
0
LWPOLYLINE
5
109
100
AcDbEntity
8
0
100
AcDbPolyline
90
8
70
1
43
0.0
10
724.99999999999955
20
1.4210854715202004e-13
10
724.99999999999955
20
310.00000000000011
10
1365
20
310.00000000000011
10
1365
20
1.5765166949677228e-13
10
1350
20
1.5765166949677223e-13
10
1350
20
5.0000000000001581
10
739.99999999999955
20
5.0000000000001581
10
739.99999999999955
20
1.5765166949677228e-13
0
LWPOLYLINE
5
110
100
AcDbEntity
8
0
100
AcDbPolyline
90
4
70
1
43
0.0
10
1344.9999999999998
20
50.000000000000156
10
1344.9999999999998
20
10.00000000000016
10
1349.9999999999998
20
10.00000000000016
10
1349.9999999999998
20
50.000000000000156
0
LWPOLYLINE
5
111
100
AcDbEntity
8
0
100
AcDbPolyline
90
4
70
1
43
0.0
10
1349.9999999999998
20
290.00000000000011
10
1344.9999999999998
20
290.00000000000011
10
1344.9999999999998
20
260.00000000000011
10
1349.9999999999998
20
260.00000000000011
0
LWPOLYLINE
5
112
100
AcDbEntity
8
0
100
AcDbPolyline
90
4
70
1
43
0.0
10
1349.9999999999998
20
230.00000000000014
10
1344.9999999999998
20
230.00000000000014
10
1344.9999999999998
20
200.00000000000014
10
1349.9999999999998
20
200.00000000000014
0
LWPOLYLINE
5
113
100
AcDbEntity
8
0
100
AcDbPolyline
90
4
70
1
43
0.0
10
1349.9999999999998
20
170.00000000000014
10
1344.9999999999998
20
170.00000000000014
10
1344.9999999999998
20
140.00000000000017
10
1349.9999999999998
20
140.00000000000017
0
LWPOLYLINE
5
114
100
AcDbEntity
8
0
100
AcDbPolyline
90
4
70
1
43
0.0
10
739.99999999999955
20
10.00000000000016
10
744.99999999999955
20
10.00000000000016
10
744.99999999999955
20
50.000000000000156
10
739.99999999999955
20
50.000000000000156
0
LWPOLYLINE
5
115
100
AcDbEntity
8
0
100
AcDbPolyline
90
4
70
1
43
0.0
10
1349.9999999999998
20
110.00000000000016
10
1344.9999999999998
20
110.00000000000016
10
1344.9999999999998
20
80.000000000000156
10
1349.9999999999998
20
80.000000000000156
0
LWPOLYLINE
5
116
100
AcDbEntity
8
0
100
AcDbPolyline
90
4
70
1
43
0.0
10
744.99999999999955
20
260.00000000000011
10
744.99999999999955
20
290.00000000000011
10
739.99999999999955
20
290.00000000000011
10
739.99999999999955
20
260.00000000000011
0
LWPOLYLINE
5
117
100
AcDbEntity
8
0
100
AcDbPolyline
90
4
70
1
43
0.0
10
744.99999999999955
20
200.00000000000014
10
744.99999999999955
20
230.00000000000014
10
739.99999999999955
20
230.00000000000014
10
739.99999999999955
20
200.00000000000014
0
LWPOLYLINE
5
118
100
AcDbEntity
8
0
100
AcDbPolyline
90
4
70
1
43
0.0
10
744.99999999999955
20
140.00000000000017
10
744.99999999999955
20
170.00000000000014
10
739.99999999999955
20
170.00000000000014
10
739.99999999999955
20
140.00000000000017
0
LWPOLYLINE
5
119
100
AcDbEntity
8
0
100
AcDbPolyline
90
8
70
1
43
0.0
10
1004.4999999999995
20
87.500000000000156
10
985.49999999999955
20
87.500000000000156
42
0.41421356237309509
10
983.49999999999966
20
85.50000000000027
10
983.49999999999955
20
39.500000000000185
42
0.41421356237309509
10
985.49999999999955
20
37.500000000000156
10
1004.4999999999995
20
37.500000000000185
42
0.41421356237309509
10
1006.4999999999997
20
39.500000000000185
10
1006.4999999999997
20
85.50000000000027
42
0.41421356237309509
0
LWPOLYLINE
5
120
100
AcDbEntity
8
0
100
AcDbPolyline
90
8
70
1
43
0.0
10
1142.9999999999998
20
80.000000000000156
10
1046.9999999999995
20
80.000000000000156
42
0.41421356237309509
10
1044.9999999999998
20
78.000000000000128
10
1044.9999999999995
20
42.000000000000185
42
0.41421356237309509
10
1046.9999999999995
20
40.000000000000156
10
1142.9999999999998
20
40.000000000000185
42
0.41421356237309509
10
1144.9999999999998
20
42.000000000000185
10
1144.9999999999998
20
78.000000000000128
42
0.41421356237309509
0
LWPOLYLINE
5
121
100
AcDbEntity
8
0
100
AcDbPolyline
90
4
70
1
43
0.0
10
744.99999999999955
20
80.000000000000156
10
744.99999999999955
20
110.00000000000016
10
739.99999999999955
20
110.00000000000016
10
739.99999999999955
20
80.000000000000156
0
CIRCLE
5
122
100
AcDbEntity
8
0
100
AcDbCircle
10
1150.9999999999998
20
85.000000000000355
30
1.4921397450962104e-11
40
2.0000000000000133
210
7.5115594582988818e-14
220
0
230
1
0
CIRCLE
5
123
100
AcDbEntity
8
0
100
AcDbCircle
10
1038.9999999999993
20
85.000001266598588
30
2.3305801732931286e-11
40
2
210
7.5115594582988818e-14
220
0
230
1
0
CIRCLE
5
124
100
AcDbEntity
8
0
100
AcDbCircle
10
-1024.9999999999998
20
85.000000000000156
30
0
40
2.0000000000000018
210
0
220
0
230
-1
0
CIRCLE
5
125
100
AcDbEntity
8
0
100
AcDbCircle
10
-1024.9999999999995
20
40.000000000000156
30
0
40
2.0000000000000018
210
0
220
0
230
-1
0
CIRCLE
5
126
100
AcDbEntity
8
0
100
AcDbCircle
10
-964.99999999999977
20
40.000000000000156
30
0
40
2.0000000000000018
210
0
220
0
230
-1
0
CIRCLE
5
127
100
AcDbEntity
8
0
100
AcDbCircle
10
-964.99999999999977
20
85.000000000000156
30
0
40
2.0000000000000018
210
0
220
0
230
-1
0
CIRCLE
5
128
100
AcDbEntity
8
0
100
AcDbCircle
10
-1150.9999999999995
20
65.000000000000156
30
0
40
2.0000000000000018
210
0
220
0
230
-1
0
CIRCLE
5
129
100
AcDbEntity
8
0
100
AcDbCircle
10
-1038.9999999999995
20
65.000000000000156
30
0
40
2.0000000000000018
210
0
220
0
230
-1
0
ENDSEC
0
SECTION
2
OBJECTS
0
DICTIONARY
5
C
100
AcDbDictionary
3
ACAD_GROUP
350
D
3
ACAD_MLINESTYLE
350
17
0
DICTIONARY
5
D
100
AcDbDictionary
0
DICTIONARY
5
1A
330
C
100
AcDbDictionary
0
DICTIONARY
5
17
100
AcDbDictionary
0
ENDSEC
0
EOF
