0
SECTION
2
HEADER
9
$INSUNITS
70
4
9
$ACADVER
1
AC1014
9
$HANDSEED
5
FFFF
0
ENDSEC
0
SECTION
2
TABLES
0
TABLE
2
VPORT
5
8
100
AcDbSymbolTable
0
ENDTAB
0
TABLE
2
LTYPE
5
5
100
AcDbSymbolTable
0
LTYPE
5
14
100
AcDbSymbolTableRecord
100
AcDbLinetypeTableRecord
2
BYBLOCK
70
0
0
LTYPE
5
15
100
AcDbSymbolTableRecord
100
AcDbLinetypeTableRecord
2
BYLAYER
70
0
0
ENDTAB
0
TABLE
2
LAYER
5
2
100
AcDbSymbolTable
70
2
0
LAYER
5
50
100
AcDbSymbolTableRecord
100
AcDbLayerTableRecord
2
0
70
0
6
CONTINUOUS
0
ENDTAB
0
TABLE
2
STYLE
5
3
100
AcDbSymbolTable
70
1
0
STYLE
5
11
100
AcDbSymbolTableRecord
100
AcDbTextStyleTableRecord
2
STANDARD
70
0
0
ENDTAB
0
TABLE
2
VIEW
5
6
100
AcDbSymbolTable
70
0
0
ENDTAB
0
TABLE
2
UCS
5
7
100
AcDbSymbolTable
70
0
0
ENDTAB
0
TABLE
2
APPID
5
9
100
AcDbSymbolTable
70
2
0
APPID
5
12
100
AcDbSymbolTableRecord
100
AcDbRegAppTableRecord
2
ACAD
70
0
0
ENDTAB
0
TABLE
2
DIMSTYLE
5
A
100
AcDbSymbolTable
70
1
0
ENDTAB
0
TABLE
2
BLOCK_RECORD
5
1
100
AcDbSymbolTable
70
1
0
BLOCK_RECORD
5
1F
100
AcDbSymbolTableRecord
100
AcDbBlockTableRecord
2
*MODEL_SPACE
0
BLOCK_RECORD
5
1B
100
AcDbSymbolTableRecord
100
AcDbBlockTableRecord
2
*PAPER_SPACE
0
ENDTAB
0
ENDSEC
0
SECTION
2
BLOCKS
0
BLOCK
5
20
100
AcDbEntity
100
AcDbBlockBegin
2
*MODEL_SPACE
0
ENDBLK
5
21
100
AcDbEntity
100
AcDbBlockEnd
0
BLOCK
5
1C
100
AcDbEntity
100
AcDbBlockBegin
2
*PAPER_SPACE
0
ENDBLK
5
1D
100
AcDbEntity
100
AcDbBlockEnd
0
ENDSEC
0
SECTION
2
ENTITIES
0
LWPOLYLINE
5
100
100
AcDbEntity
8
0
100
AcDbPolyline
90
4
70
1
43
0.0
10
1344.5500000000011
20
19.999999999999616
10
1350.450000000001
20
19.999999999999616
10
1350.450000000001
20
49.999999999999616
10
1344.5500000000011
20
49.999999999999616
0
LWPOLYLINE
5
101
100
AcDbEntity
8
0
100
AcDbPolyline
90
4
70
1
43
0.0
10
1344.5500000000011
20
79.999999999999602
10
1350.450000000001
20
79.999999999999602
10
1350.450000000001
20
109.9999999999996
10
1344.5500000000011
20
109.9999999999996
0
LWPOLYLINE
5
102
100
AcDbEntity
8
0
100
AcDbPolyline
90
16
70
1
43
0.0
10
775.00000000000045
20
2.9999999999996945
42
-0.41421356237309481
10
772.00000000000045
20
-3.0586644328423063e-13
10
748.00000000000057
20
-4.8516746176119341e-13
42
-0.41421356237307405
10
745.00000000000045
20
2.999999999999698
10
745.00000000000045
20
4.999999999999698
10
725.00000000000023
20
4.9999999999996803
10
725.00000000000091
20
244.99999999999989
10
1365.0000000000014
20
244.99999999999974
10
1365.0000000000014
20
4.9999999999996101
10
1345.0000000000009
20
4.9999999999996136
10
1345.0000000000014
20
2.9999999999996141
42
-0.41421356237311779
10
1342.0000000000009
20
-3.8626579154456041e-13
10
1318.0000000000014
20
-1.5931700403370996e-13
42
-0.41421356237303447
10
1315.0000000000014
20
2.9999999999996185
10
1315.0000000000011
20
4.9999999999996181
10
775.00000000000045
20
4.9999999999996936
0
CIRCLE
5
103
100
AcDbEntity
8
0
100
AcDbCircle
10
839.00001250207436
20
85.000001266598701
30
0
40
2.0000000000000284
210
1.8032078847765707e-47
220
9.8607613152626476e-32
230
1
0
CIRCLE
5
104
100
AcDbEntity
8
0
100
AcDbCircle
10
951.00001417100441
20
85.000001266598701
30
-1.4210854715202004e-13
40
2.0000000000000284
210
1.8032078847765707e-47
220
9.8607613152626476e-32
230
1
0
LWPOLYLINE
5
105
100
AcDbEntity
8
0
100
AcDbPolyline
90
4
70
1
43
0.0
10
1344.5500000000011
20
139.9999999999996
10
1350.450000000001
20
139.9999999999996
10
1350.450000000001
20
169.9999999999996
10
1344.5500000000011
20
169.99999999999966
0
LWPOLYLINE
5
106
100
AcDbEntity
8
0
100
AcDbPolyline
90
4
70
1
43
0.0
10
1344.5500000000011
20
199.99999999999966
10
1350.450000000001
20
199.9999999999996
10
1350.450000000001
20
229.9999999999996
10
1344.5500000000011
20
229.99999999999966
0
CIRCLE
5
107
100
AcDbEntity
8
0
100
AcDbCircle
10
765.00000000000068
20
84.999999999999886
30
0
40
2.0000000000000053
210
-2.1693674893577888e-32
220
1.9721522630525295e-31
230
1
0
CIRCLE
5
108
100
AcDbEntity
8
0
100
AcDbCircle
10
765.00000000000068
20
39.999999999999901
30
0
40
2.0000000000000053
210
-2.1693674893577888e-32
220
1.9721522630525295e-31
230
1
0
CIRCLE
5
109
100
AcDbEntity
8
0
100
AcDbCircle
10
825.00000000000068
20
39.999999999999901
30
0
40
2.0000000000000018
210
-2.169367489357791e-32
220
9.8607613152626476e-32
230
1
0
CIRCLE
5
110
100
AcDbEntity
8
0
100
AcDbCircle
10
825.00000000000068
20
84.999999999999886
30
0
40
2.0000000000000018
210
-2.169367489357791e-32
220
9.8607613152626476e-32
230
1
0
LWPOLYLINE
5
111
100
AcDbEntity
8
0
100
AcDbPolyline
90
8
70
1
43
0.0
10
785.5000000000008
20
37.499999999999901
10
804.50000000000057
20
37.499999999999901
42
0.41421356237307616
10
806.50000000000045
20
39.49999999999978
10
806.50000000000068
20
85.499999999999858
42
0.41421356237307683
10
804.50000000000057
20
87.499999999999886
10
785.5000000000008
20
87.499999999999858
42
0.41421356237307683
10
783.50000000000091
20
85.499999999999858
10
783.5000000000008
20
39.499999999999787
42
0.41421356237307683
0
CIRCLE
5
112
100
AcDbEntity
8
0
100
AcDbCircle
10
839.00000000000045
20
64.999999999999901
30
0
40
2.0000000000000018
210
-2.169367489357791e-32
220
9.8607613152626476e-32
230
1
0
CIRCLE
5
113
100
AcDbEntity
8
0
100
AcDbCircle
10
951.00000000000091
20
64.999999999999901
30
-1.4210854715202004e-13
40
2.0000000000000018
210
-2.169367489357791e-32
220
9.8607613152626476e-32
230
1
0
LWPOLYLINE
5
114
100
AcDbEntity
8
0
100
AcDbPolyline
90
8
70
1
43
0.0
10
847.00000000000057
20
39.999999999999901
10
943.0000000000008
20
39.999999999999901
42
0.4142135623730781
10
945.00000000000068
20
41.999999999999787
10
945.00000000000091
20
77.999999999999872
42
0.4142135623730781
10
943.0000000000008
20
79.999999999999886
10
847.00000000000057
20
79.999999999999872
42
0.4142135623730781
10
845.00000000000068
20
77.999999999999872
10
845.00000000000057
20
41.999999999999787
42
0.4142135623730781
0
LWPOLYLINE
5
115
100
AcDbEntity
8
0
100
AcDbPolyline
90
4
70
1
43
0.0
10
739.5500000000003
20
19.999999999999702
10
745.45000000000027
20
19.999999999999698
10
745.4500000000005
20
49.999999999999709
10
739.55000000000041
20
49.999999999999709
0
LWPOLYLINE
5
116
100
AcDbEntity
8
0
100
AcDbPolyline
90
4
70
1
43
0.0
10
739.5500000000003
20
139.99999999999969
10
745.45000000000027
20
139.99999999999969
10
745.4500000000005
20
169.99999999999972
10
739.55000000000041
20
169.99999999999972
0
LWPOLYLINE
5
117
100
AcDbEntity
8
0
100
AcDbPolyline
90
4
70
1
43
0.0
10
739.5500000000003
20
79.999999999999702
10
745.45000000000027
20
79.999999999999702
10
745.4500000000005
20
109.9999999999997
10
739.55000000000041
20
109.9999999999997
0
LWPOLYLINE
5
118
100
AcDbEntity
8
0
100
AcDbPolyline
90
4
70
1
43
0.0
10
745.4500000000005
20
229.99999999999972
10
739.55000000000041
20
229.99999999999972
10
739.5500000000003
20
199.99999999999972
10
745.45000000000027
20
199.99999999999972
0
ENDSEC
0
SECTION
2
OBJECTS
0
DICTIONARY
5
C
100
AcDbDictionary
3
ACAD_GROUP
350
D
3
ACAD_MLINESTYLE
350
17
0
DICTIONARY
5
D
100
AcDbDictionary
0
DICTIONARY
5
1A
330
C
100
AcDbDictionary
0
DICTIONARY
5
17
100
AcDbDictionary
0
ENDSEC
0
EOF
